<?xml version="1.0" encoding="iso-8859-1"?>
<!-- Generator: Adobe Illustrator 18.0.0, SVG Export Plug-In . SVG Version: 6.00 Build 0)  -->
<!DOCTYPE svg PUBLIC "-//W3C//DTD SVG 1.1//EN" "http://www.w3.org/Graphics/SVG/1.1/DTD/svg11.dtd">
<svg version="1.1" id="Calque_1" xmlns="http://www.w3.org/2000/svg" xmlns:xlink="http://www.w3.org/1999/xlink" x="0px" y="0px"
	 viewBox="0 0 500 500" enable-background="new 0 0 500 500" xml:space="preserve">
<g>
	<g>
		<path fill="#E1E9F4" d="M52.7,249v-1.3c0-125.4,93.9-228.1,227.5-228.1c68.1,0,112.8,20.2,151.2,49.8c8.2,6.3,15.1,17,15.1,30.9
			c0,21.4-17,37.8-38.4,37.8c-10.7,0-18.3-3.8-23.3-7.6c-30.2-24.6-63-39.7-105.2-39.7c-83.8,0-145.6,69.3-145.6,155.6v1.3
			C134,334,195.1,404,279.6,404c46.6,0,78.1-15.1,110.3-42.2c5.7-5,13.9-8.8,23.3-8.8c19.5,0,36.5,16.4,36.5,35.9
			c0,12-5.7,21.4-12.6,27.7c-41.6,36.5-88.8,59.2-160.1,59.2C148.5,475.8,52.7,375.6,52.7,249z"/>
	</g>
	<path fill="#4072AF" d="M134.2,239.7c3.1-83.1,63.8-148.9,145.4-148.9c42.2,0,75,15.1,105.2,39.7c5,3.8,12.6,7.6,23.3,7.6
		c21.4,0,38.4-16.4,38.4-37.8c0-13.9-6.9-24.6-15.1-30.9C393,39.8,348.2,19.6,280.2,19.6C149.5,19.6,56.8,118,52.9,239.7
		c0,0-0.2,43.4,41.5,42.2C130.8,280.8,134.2,239.7,134.2,239.7z"/>
	<circle fill="#E1E9F4" cx="91.7" cy="247.7" r="10.4"/>
</g>
</svg>
